<svg xmlns="http://www.w3.org/2000/svg" width="29" height="36" viewBox="0 0 29 36">
  <g fill="#FFF">
    <path d="M28.1251406 23.0712891L28.1251406 17.1386719C28.1251406 15.4430859 27.2296406 14.0698125 25.7296641 13.4653359 24.9219844 13.1397891 24.0861094 13.1089922 23.4312187 13.3482656 23.1326719 12.9685781 22.7388516 12.6505547 22.2655781 12.4189453 21.36375 11.9777344 20.3449922 11.9172656 19.5311953 12.2219297 19.1073516 11.7212344 18.5139844 11.3483672 17.7993984 11.1635859 17.20125 11.0088984 16.6137891 11.0097422 16.108875 11.1440391L15.9915937 5.75050781C15.9575625 4.18197656 14.7604922 2.95333594 13.2664219 2.95333594 11.7636328 2.95333594 10.5411094 4.21502344 10.5411094 5.76583594L10.5411094 19.2296953C10.2576797 18.9481641 10.0474453 18.6510234 9.83088281 18.3449531 9.29334375 17.5850859 8.68401562 16.7237578 7.01732812 16.3643203 5.60559375 16.0598672 4.38989062 16.7596172 3.85776562 17.5385391 3.436875 18.1545469 3.402 18.8495156 3.76439062 19.3973906 3.87133594 19.5590391 3.99642187 19.7199141 4.12896094 19.8902109 4.56285937 20.4480703 5.15721094 21.2121563 5.73925781 22.8097969 6.54996094 25.0351875 7.95016406 26.0393203 9.07530469 26.8462266 10.1605078 27.6244453 10.9802812 28.2131016 11.1720937 29.6744063 10.8055547 29.6984531 10.5154453 30.0025547 10.5154453 30.3752109L10.5154453 35.2970859C10.5154453 35.6854219 10.8302344 36.0002109 11.2185703 36.0002109L26.7735937 36.0002109C27.1619297 36.0002109 27.4767187 35.6854219 27.4767187 35.2970859L27.4767187 30.3752109C27.4767187 30.0010781 27.1842187 29.6960625 26.8155703 29.6741953 26.9090859 28.7781328 27.1612969 27.8657578 27.4256016 26.9109844 27.7695 25.6687031 28.1251406 24.3841641 28.1251406 23.0712891L28.1251406 23.0712891zM13.2662812 4.35958594C13.9767187 4.35958594 14.5685391 4.99725 14.5855547 5.78109375L14.7877734 15.0798516C14.7962109 15.4680469 15.1192969 15.7730625 15.5060156 15.7675078 15.8942812 15.7590703 16.2021094 15.4375313 16.1936719 15.0492656L16.1415703 12.6531563C16.3695234 12.4687266 16.8837187 12.3794297 17.4472031 12.5251172 17.7750703 12.6099141 18.8446641 12.9829922 18.8446641 14.2251328 18.8446641 14.6134688 19.1594531 14.9282578 19.5477891 14.9282578 19.936125 14.9282578 20.2509141 14.6134688 20.2509141 14.2251328 20.2509141 13.9728516 20.2227891 13.7285859 20.1686484 13.4950078 20.6042344 13.3853203 21.1672969 13.4471953 21.64725 13.6821094 22.0308047 13.8697734 22.6742344 14.3218125 22.6742344 15.2402344 22.6742344 15.6285703 22.9890234 15.9433594 23.3773594 15.9433594 23.7656953 15.9433594 24.0804844 15.6285703 24.0804844 15.2402344 24.0804844 15.0337266 24.0607266 14.8318594 24.0223359 14.6361094 24.3217969 14.5650938 24.7574531 14.5897734 25.2037969 14.7696328 25.6592812 14.9531484 26.7186797 15.5515078 26.7186797 17.1386016L26.7186797 23.0712188C26.7186797 24.1929844 26.4036094 25.3308516 26.0700469 26.5355859 25.7877422 27.5549766 25.4981953 28.6031953 25.4032734 29.6719453L22.1596172 29.6719453C21.7712812 29.6719453 21.4564922 29.9867344 21.4564922 30.3750703 21.4564922 30.7634063 21.7712812 31.0781953 22.1596172 31.0781953L26.0701875 31.0781953 26.0701875 34.5938906 11.921625 34.5938906 11.921625 31.0782656 15.8317031 31.0782656C16.2200391 31.0782656 16.5348281 30.7634766 16.5348281 30.3751406 16.5348281 29.9868047 16.2200391 29.6720156 15.8317031 29.6720156L12.5867812 29.6720156C12.3671953 27.4779141 11.1123281 26.5765781 9.89472656 25.7033672 8.82675 24.9374531 7.72242187 24.1455938 7.06042969 22.3283672 6.40272656 20.5230234 5.70234375 19.6225313 5.23884375 19.0266328 5.11839844 18.8717344 5.01433594 18.738 4.93713281 18.6213516 4.88151562 18.5373281 5.0045625 18.3524766 5.01876562 18.3316641 5.29579687 17.9261016 5.98647656 17.5805156 6.72075 17.7388594 7.85214844 17.9828438 8.18254687 18.4499297 8.68267969 19.1569922 9.08177344 19.7210391 9.56770312 20.4080625 10.5408984 20.997L10.5408984 21.2871094C10.5408984 21.6754453 10.8556875 21.9902344 11.2440234 21.9902344 11.6323594 21.9902344 11.9471484 21.6754453 11.9471484 21.2871094L11.9471484 5.76583594C11.9471484 4.99042969 12.5388984 4.35958594 13.2662812 4.35958594zM3.72670312 5.25867187L2.40067969 3.93264844 8.47328906 3.93264844C8.861625 3.93264844 9.17641406 3.61785937 9.17641406 3.22952344 9.17641406 2.8411875 8.861625 2.52639844 8.47328906 2.52639844L2.40060938 2.52639844 3.72670313 1.200375C4.00127344.925804687 4.00127344.480585937 3.72670313.205945312 3.45213281-.0686953125 3.00691406-.068625 2.73227344.205945312L.205945313 2.73234375C.074109375 2.86417969 0 3.04305469 0 3.22952344 0 3.41599219.074109375 3.59486719.205945313 3.72670312L2.73234375 6.25303125C2.86966406 6.39035156 3.04959375 6.45897656 3.22952344 6.45897656 3.40945313 6.45897656 3.58945312 6.39035156 3.72670313 6.25303125 4.00127344 5.97846094 4.00127344 5.53324219 3.72670313 5.25867187L3.72670312 5.25867187z"/>
    <path d="M21.023578,5.25867211 L19.6975546,3.93264867 L25.770164,3.93264867 C26.1584999,3.93264867 26.473289,3.61785961 26.473289,3.22952367 C26.473289,2.84118773 26.1584999,2.52639867 25.770164,2.52639867 L19.6974843,2.52639867 L21.023578,1.20037523 C21.2981483,0.925804918 21.2981483,0.480586168 21.023578,0.205945543 C20.7490077,-0.0686950827 20.303789,-0.0686247702 20.0291483,0.205945543 L17.5028202,2.73234398 C17.3709843,2.86417992 17.2968749,3.04305492 17.2968749,3.22952367 C17.2968749,3.41599242 17.3709843,3.59486742 17.5028202,3.72670336 L20.0292187,6.25303148 C20.166539,6.39035179 20.3464686,6.45897679 20.5263983,6.45897679 C20.706328,6.45897679 20.886328,6.39035179 21.023578,6.25303148 C21.2981483,5.97846117 21.2981483,5.53324242 21.023578,5.25867211 L21.023578,5.25867211 Z" transform="rotate(-180 21.885 3.23)"/>
  </g>
</svg>
