<svg width="20" height="21" viewBox="0 0 20 21" fill="none" xmlns="http://www.w3.org/2000/svg">
<path d="M14.541 19.4582C13.5993 19.4582 12.6077 19.2332 11.5827 18.7998C10.5827 18.3748 9.57435 17.7915 8.59102 17.0832C7.61602 16.3665 6.67435 15.5665 5.78268 14.6915C4.89935 13.7998 4.09935 12.8582 3.39102 11.8915C2.67435 10.8915 2.09935 9.8915 1.69102 8.92484C1.25768 7.8915 1.04102 6.8915 1.04102 5.94984C1.04102 5.29984 1.15768 4.68317 1.38268 4.10817C1.61602 3.5165 1.99102 2.9665 2.49935 2.4915C3.14102 1.85817 3.87435 1.5415 4.65768 1.5415C4.98268 1.5415 5.31602 1.6165 5.59935 1.74984C5.92435 1.89984 6.19935 2.12484 6.39935 2.42484L8.33268 5.14984C8.50768 5.3915 8.64101 5.62484 8.73268 5.85817C8.84101 6.10817 8.89935 6.35817 8.89935 6.59984C8.89935 6.9165 8.80768 7.22484 8.63268 7.5165C8.50768 7.7415 8.31601 7.98317 8.07435 8.22484L7.50768 8.8165C7.51602 8.8415 7.52435 8.85817 7.53268 8.87484C7.63268 9.04984 7.83268 9.34984 8.21601 9.79984C8.62435 10.2665 9.00768 10.6915 9.39102 11.0832C9.88268 11.5665 10.291 11.9498 10.6743 12.2665C11.1493 12.6665 11.4577 12.8665 11.641 12.9582L11.6243 12.9998L12.2327 12.3998C12.491 12.1415 12.741 11.9498 12.9827 11.8248C13.441 11.5415 14.0243 11.4915 14.6077 11.7332C14.8243 11.8248 15.0577 11.9498 15.3077 12.1248L18.0743 14.0915C18.3827 14.2998 18.6077 14.5665 18.741 14.8832C18.866 15.1998 18.9243 15.4915 18.9243 15.7832C18.9243 16.1832 18.8327 16.5832 18.6577 16.9582C18.4827 17.3332 18.266 17.6582 17.991 17.9582C17.516 18.4832 16.9993 18.8582 16.3993 19.0998C15.8243 19.3332 15.1993 19.4582 14.541 19.4582ZM4.65768 2.7915C4.19935 2.7915 3.77435 2.9915 3.36602 3.3915C2.98268 3.74984 2.71602 4.1415 2.54935 4.5665C2.37435 4.99984 2.29102 5.45817 2.29102 5.94984C2.29102 6.72484 2.47435 7.5665 2.84102 8.43317C3.21602 9.3165 3.74102 10.2332 4.40768 11.1498C5.07435 12.0665 5.83268 12.9582 6.66602 13.7998C7.49935 14.6248 8.39935 15.3915 9.32435 16.0665C10.2243 16.7248 11.1493 17.2582 12.066 17.6415C13.491 18.2498 14.8243 18.3915 15.9243 17.9332C16.3493 17.7582 16.7243 17.4915 17.066 17.1082C17.2577 16.8998 17.4077 16.6748 17.5327 16.4082C17.6327 16.1998 17.6827 15.9832 17.6827 15.7665C17.6827 15.6332 17.6577 15.4998 17.591 15.3498C17.566 15.2998 17.516 15.2082 17.3577 15.0998L14.591 13.1332C14.4243 13.0165 14.2743 12.9332 14.1327 12.8748C13.9493 12.7998 13.8743 12.7248 13.591 12.8998C13.4243 12.9832 13.2743 13.1082 13.1077 13.2748L12.4743 13.8998C12.1493 14.2165 11.6493 14.2915 11.266 14.1498L11.041 14.0498C10.6993 13.8665 10.2993 13.5832 9.85768 13.2082C9.45768 12.8665 9.02435 12.4665 8.49935 11.9498C8.09101 11.5332 7.68268 11.0915 7.25768 10.5998C6.86601 10.1415 6.58268 9.74984 6.40768 9.42484L6.30768 9.17484C6.25768 8.98317 6.24101 8.87484 6.24101 8.75817C6.24101 8.45817 6.34935 8.1915 6.55768 7.98317L7.18268 7.33317C7.34935 7.1665 7.47435 7.00817 7.55768 6.8665C7.62435 6.75817 7.64935 6.6665 7.64935 6.58317C7.64935 6.5165 7.62435 6.4165 7.58268 6.3165C7.52435 6.18317 7.43268 6.03317 7.31601 5.87484L5.38268 3.1415C5.29935 3.02484 5.19935 2.9415 5.07435 2.88317C4.94102 2.82484 4.79935 2.7915 4.65768 2.7915ZM11.6243 13.0082L11.491 13.5748L11.716 12.9915C11.6743 12.9832 11.641 12.9915 11.6243 13.0082Z" fill="#CBCBCB"/>
<path d="M15.4167 8.62492C15.075 8.62492 14.7917 8.34159 14.7917 7.99992C14.7917 7.69992 14.4917 7.07492 13.9917 6.54159C13.5 6.01659 12.9583 5.70825 12.5 5.70825C12.1583 5.70825 11.875 5.42492 11.875 5.08325C11.875 4.74159 12.1583 4.45825 12.5 4.45825C13.3083 4.45825 14.1583 4.89159 14.9 5.68325C15.5917 6.42492 16.0417 7.33325 16.0417 7.99992C16.0417 8.34159 15.7583 8.62492 15.4167 8.62492Z" fill="#CBCBCB"/>
<path d="M18.3333 8.62484C17.9917 8.62484 17.7083 8.3415 17.7083 7.99984C17.7083 5.12484 15.375 2.7915 12.5 2.7915C12.1583 2.7915 11.875 2.50817 11.875 2.1665C11.875 1.82484 12.1583 1.5415 12.5 1.5415C16.0583 1.5415 18.9583 4.4415 18.9583 7.99984C18.9583 8.3415 18.675 8.62484 18.3333 8.62484Z" fill="#CBCBCB"/>
</svg>
