<svg width="20" height="20" viewBox="0 0 20 20" fill="none" xmlns="http://www.w3.org/2000/svg">
<path d="M10.0004 11.8084C8.22539 11.8084 6.77539 10.3667 6.77539 8.58337C6.77539 6.80003 8.22539 5.3667 10.0004 5.3667C11.7754 5.3667 13.2254 6.80837 13.2254 8.5917C13.2254 10.375 11.7754 11.8084 10.0004 11.8084ZM10.0004 6.6167C8.91706 6.6167 8.02539 7.50003 8.02539 8.5917C8.02539 9.68337 8.90872 10.5667 10.0004 10.5667C11.0921 10.5667 11.9754 9.68337 11.9754 8.5917C11.9754 7.50003 11.0837 6.6167 10.0004 6.6167Z" fill="#CBCBCB"/>
<path d="M9.99941 18.9665C8.76608 18.9665 7.52441 18.4998 6.55775 17.5748C4.09941 15.2082 1.38275 11.4332 2.40775 6.9415C3.33275 2.8665 6.89108 1.0415 9.99941 1.0415C9.99941 1.0415 9.99942 1.0415 10.0077 1.0415C13.1161 1.0415 16.6744 2.8665 17.5994 6.94984C18.6161 11.4415 15.8994 15.2082 13.4411 17.5748C12.4744 18.4998 11.2327 18.9665 9.99941 18.9665ZM9.99941 2.2915C7.57441 2.2915 4.45775 3.58317 3.63275 7.2165C2.73275 11.1415 5.19941 14.5248 7.43275 16.6665C8.87441 18.0582 11.1327 18.0582 12.5744 16.6665C14.7994 14.5248 17.2661 11.1415 16.3827 7.2165C15.5494 3.58317 12.4244 2.2915 9.99941 2.2915Z" fill="#CBCBCB"/>
</svg>
