<svg width="20" height="20" viewBox="0 0 20 20" fill="none" xmlns="http://www.w3.org/2000/svg">
<path d="M9.99935 17.7084H5.83268C2.79102 17.7084 1.04102 15.9584 1.04102 12.9167V7.08342C1.04102 4.04175 2.79102 2.29175 5.83268 2.29175H14.166C17.2077 2.29175 18.9577 4.04175 18.9577 7.08342V9.58342C18.9577 9.92508 18.6743 10.2084 18.3327 10.2084C17.991 10.2084 17.7077 9.92508 17.7077 9.58342V7.08342C17.7077 4.70008 16.5493 3.54175 14.166 3.54175H5.83268C3.44935 3.54175 2.29102 4.70008 2.29102 7.08342V12.9167C2.29102 15.3001 3.44935 16.4584 5.83268 16.4584H9.99935C10.341 16.4584 10.6243 16.7417 10.6243 17.0834C10.6243 17.4251 10.341 17.7084 9.99935 17.7084Z" fill="#CBCBCB"/>
<path d="M9.999 10.725C9.299 10.725 8.59067 10.5083 8.049 10.0666L5.44067 7.9833C5.174 7.76663 5.124 7.37497 5.34067 7.10831C5.55734 6.84164 5.94899 6.79998 6.21566 7.00831L8.824 9.09164C9.45733 9.59998 10.5323 9.59998 11.1657 9.09164L13.774 7.00831C14.0407 6.79164 14.4323 6.83331 14.649 7.10831C14.8657 7.37497 14.824 7.77496 14.549 7.9833L11.9407 10.0666C11.4073 10.5083 10.699 10.725 9.999 10.725Z" fill="#CBCBCB"/>
<path d="M13.1843 18.1498C12.8676 18.1498 12.5676 18.0332 12.3509 17.8165C12.0926 17.5582 11.9759 17.1832 12.0343 16.7915L12.1926 15.6665C12.2343 15.3748 12.4093 15.0248 12.6176 14.8165L15.5676 11.8665C15.9676 11.4665 16.3593 11.2582 16.7843 11.2165C17.3009 11.1665 17.8176 11.3832 18.3009 11.8665C18.7843 12.3498 19.0009 12.8582 18.9509 13.3832C18.9093 13.7998 18.6926 14.1998 18.3009 14.5998L15.3509 17.5498C15.1426 17.7582 14.7926 17.9332 14.5009 17.9749L13.3759 18.1332C13.3093 18.1415 13.2509 18.1498 13.1843 18.1498ZM16.9259 12.4582C16.9176 12.4582 16.9093 12.4582 16.9009 12.4582C16.7843 12.4665 16.6259 12.5748 16.4509 12.7498L13.5009 15.6998C13.4759 15.7248 13.4343 15.8082 13.4343 15.8415L13.2843 16.8832L14.3259 16.7332C14.3593 16.7248 14.4426 16.6832 14.4676 16.6582L17.4176 13.7082C17.5926 13.5249 17.7009 13.3748 17.7093 13.2582C17.7259 13.0915 17.5593 12.8915 17.4176 12.7498C17.2843 12.6165 17.0926 12.4582 16.9259 12.4582Z" fill="#CBCBCB"/>
<path d="M17.4338 15.2083C17.3755 15.2083 17.3171 15.1999 17.2671 15.1833C16.1671 14.8749 15.2922 14 14.9838 12.9C14.8922 12.5666 15.0838 12.2249 15.4171 12.1249C15.7505 12.0333 16.0922 12.2249 16.1838 12.5583C16.3755 13.2416 16.9171 13.7833 17.6005 13.9749C17.9338 14.0666 18.1255 14.4166 18.0338 14.75C17.9588 15.025 17.7088 15.2083 17.4338 15.2083Z" fill="#CBCBCB"/>
</svg>
